<?xml version="1.0" standalone="no"?><!DOCTYPE svg PUBLIC "-//W3C//DTD SVG 1.1//EN" "http://www.w3.org/Graphics/SVG/1.1/DTD/svg11.dtd"><svg t="1712645533369" class="icon" viewBox="0 0 1024 1024" version="1.1" xmlns="http://www.w3.org/2000/svg" p-id="14976" xmlns:xlink="http://www.w3.org/1999/xlink" width="200" height="200"><path d="M537.173333 458.922667a154.197333 154.197333 0 0 1-51.626666-0.597334l-96.426667 128.469334a154.154667 154.154667 0 0 1 72.234667 130.005333 152.917333 152.917333 0 0 1-153.002667 153.6 154.282667 154.282667 0 0 1-154.197333-153.6 152.917333 152.917333 0 0 1 171.946666-152.448l98.645334-131.456A154.026667 154.026667 0 0 1 358.954667 307.2 152.917333 152.917333 0 0 1 512 153.6a154.282667 154.282667 0 0 1 154.154667 153.6 152.832 152.832 0 0 1-68.394667 128.128l82.645333 132.224a154.282667 154.282667 0 0 1 190.592 149.248 152.917333 152.917333 0 0 1-153.045333 153.6 154.282667 154.282667 0 0 1-154.197333-153.6 152.704 152.704 0 0 1 58.794666-121.216l-85.376-136.661333zM602.154667 307.2a90.026667 90.026667 0 0 0-89.898667-89.6 89.173333 89.173333 0 0 0-89.301333 89.6 90.026667 90.026667 0 0 0 89.941333 89.6 89.173333 89.173333 0 0 0 89.258667-89.6z m204.8 409.6a90.026667 90.026667 0 0 0-89.941334-89.6 89.173333 89.173333 0 0 0-89.258666 89.6 90.026667 90.026667 0 0 0 89.941333 89.6 89.173333 89.173333 0 0 0 89.258667-89.6zM308.096 806.4a89.173333 89.173333 0 0 0 89.258667-89.6 90.026667 90.026667 0 0 0-89.941334-89.6 89.173333 89.173333 0 0 0-89.258666 89.6 90.026667 90.026667 0 0 0 89.941333 89.6z" fill="#3787F2" p-id="14977"></path></svg>